<?xml version="1.0" encoding="UTF-8"?>
<svg version="1.1" viewBox="0 0 111 81" xmlns="http://www.w3.org/2000/svg">
<title>icon/icon-62</title>
<desc>Created with Sketch.</desc>
<g fill="none" fill-rule="evenodd">
<g transform="translate(-106 -147)">
<g transform="translate(91 104)">
<path d="m97 97.036c1.3205-6.7113 6.9098-11.655 13.584-12.015 6.6744-0.36037 12.74 3.9542 14.742 10.486 2.002 6.5319-0.56782 13.623-6.2457 17.235-5.6778 3.6119-13.023 2.8275-17.851-1.9064" fill="#37b" fill-opacity=".2" fill-rule="nonzero"/>
<circle cx="90" cy="106" r="11" fill="#37b" fill-opacity=".2" fill-rule="nonzero"/>
<path d="m62.11 58.822c-0.57749-0.0020564-1.1542 0.042866-1.7245 0.13433-1.6464-7.5709-8.6728-12.683-16.316-11.872s-13.459 7.2883-13.506 15.039c-4.7098 0.60095-8.4973 4.1978-9.3749 8.9031-0.8776 4.7053 1.3551 9.4443 5.5265 11.73 4.1714 2.2858 9.3286 1.5963 12.765-1.7067 2.2674 2.7436 5.7163 4.2034 9.2461 3.9137s6.6992-2.2929 8.4969-5.3701c4.016 2.0408 8.8632 1.3794 12.197-1.6643s4.4676-7.8424 2.8527-12.075c-1.6149-4.2328-5.6456-7.0275-10.143-7.0323h-0.021031z" fill="#37b" fill-opacity=".2" fill-rule="nonzero"/>
<path d="m105.87 115c-4.1631 0.010917-8.1677-1.6318-11.169-4.5816-0.38607-0.34667-0.55466-0.88212-0.43889-1.3939 0.11577-0.51181 0.4972-0.91723 0.99294-1.0554 0.49575-0.13819 1.0257 0.013195 1.3795 0.39409 4.401 4.2989 11.09 5.007 16.259 1.7211 5.1691-3.2859 7.5069-9.7324 5.6823-15.669-1.8246-5.9367-7.3488-9.8578-13.427-9.5307-6.0785 0.32702-11.17 4.8192-12.375 10.919-0.079911 0.51702-0.43024 0.94784-0.91286 1.1226s-1.0201 0.065429-1.4005-0.2849-0.54274-0.88543-0.42298-1.3943c1.6762-8.5177 9.5264-14.247 17.951-13.101 8.4243 1.1461 14.536 8.7747 13.975 17.444s-7.6022 15.409-16.101 15.41h0.006981z" fill="#37b" fill-rule="nonzero"/>
<path d="m105.5 124c-0.82843 0-1.5-0.63615-1.5-1.4209v-30.158c0-0.78473 0.67157-1.4209 1.5-1.4209s1.5 0.63615 1.5 1.4209v30.158c0 0.78473-0.67157 1.4209-1.5 1.4209z" fill="#0b7" fill-rule="nonzero"/>
<path d="m105.47 107c-0.66652-0.001095-1.2494-0.4173-1.422-1.0153-0.1726-0.59805 0.10801-1.2293 0.68455-1.54l6.1062-3.2884c0.70037-0.34035 1.5651-0.10732 1.9606 0.52838 0.39556 0.6357 0.18136 1.4481-0.48568 1.842l-6.1062 3.2884c-0.22407 0.12075-0.47842 0.18454-0.73747 0.18497z" fill="#0b7" fill-rule="nonzero"/>
<path d="m105.59 101c-0.24384-0.002722-0.48268-0.074596-0.69237-0.20835l-6.3006-4.0778c-0.6026-0.44633-0.77801-1.3195-0.4004-1.9933 0.37761-0.67376 1.1778-0.91539 1.8267-0.55158l6.3075 4.0703c0.52725 0.34347 0.7797 1.0202 0.61924 1.66-0.16046 0.63979-0.69517 1.0885-1.3116 1.1007h-0.048466z" fill="#0b7" fill-rule="nonzero"/>
<path d="m84.5 117c-5.0557 0-9.6136-3.0455-11.548-7.7163-1.9347-4.6709-0.8653-10.047 2.7096-13.622s8.9513-4.6444 13.622-2.7096 7.7163 6.4926 7.7163 11.548c-0.0039182 6.9018-5.598 12.496-12.5 12.5zm0-22.152c-3.9073 0-7.4298 2.3541-8.9244 5.9643-1.4946 3.6102-0.66692 7.7652 2.097 10.527s6.9196 3.5865 10.529 2.0892 5.9606-5.0214 5.9577-8.9288c-0.0078339-5.3301-4.3289-9.6479-9.659-9.6518z" fill="#37b" fill-rule="nonzero"/>
<path d="m43.636 84c-3.1998 0.0036496-6.2775-1.225-8.5908-3.4296-4.0747 3.0696-9.6116 3.3604-13.987 0.73438-4.3754-2.626-6.7103-7.6411-5.8981-12.669 0.81212-5.0277 4.608-9.058 9.589-10.181 0.58695-8.0256 6.8404-14.487 14.862-15.356 8.022-0.86955 15.521 4.101 17.824 11.813h0.71057c6.6367 0.31651 11.855 5.7746 11.855 12.401s-5.2178 12.084-11.855 12.401c-1.5152 0.0049032-3.0184-0.26895-4.434-0.80781-2.3565 3.1978-6.0964 5.0889-10.076 5.0949zm-8.4771-6.7955h0.085268c0.39265 0.023483 0.75797 0.2082 1.009 0.51019 2.0012 2.3982 5.048 3.6745 8.1663 3.4206 3.1182-0.25384 5.9172-2.006 7.5018-4.6961 0.38012-0.6418 1.1938-0.88028 1.8617-0.54562 1.3388 0.6764 2.8195 1.0261 4.3203 1.0204 5.0952-0.27668 9.0846-4.4775 9.0846-9.5661 0-5.0887-3.9893-9.2894-9.0846-9.5661-0.51407-0.002179-1.0274 0.038113-1.5348 0.12046-0.74474 0.11871-1.4528-0.3634-1.613-1.0983-1.5226-6.8737-7.979-11.511-14.999-10.772-7.02 0.73852-12.364 6.6169-12.415 13.656 0.0056479 0.71843-0.52869 1.3274-1.2435 1.4172-4.1546 0.53088-7.4923 3.6722-8.264 7.7776-0.77169 4.1055 1.1986 8.239 4.8784 10.234 3.6798 1.9953 8.2299 1.3975 11.266-1.4802 0.25774-0.26622 0.60967-0.42136 0.98059-0.43225z" fill="#37b" fill-rule="nonzero"/>
<path d="m84.5 124c-0.82843 0-1.5-0.63308-1.5-1.414v-22.172c0-0.78095 0.67157-1.414 1.5-1.414s1.5 0.63308 1.5 1.414v22.172c0 0.78094-0.67157 1.414-1.5 1.414z" fill="#0b7" fill-rule="nonzero"/>
<path d="m84.392 112c-0.62989-0.001072-1.1808-0.40565-1.3439-0.98699s0.10207-1.195 0.64693-1.497l4.2653-2.3641c0.66188-0.33084 1.479-0.10432 1.8529 0.51363 0.37382 0.61794 0.17139 1.4076-0.45899 1.7905l-4.2583 2.3641c-0.2138 0.11851-0.45674 0.18056-0.70391 0.17981z" fill="#0b7" fill-rule="nonzero"/>
<path d="m84.505 106.99c-0.26018-0.002722-0.51504-0.074596-0.7388-0.20835l-4.9721-2.9765c-0.4872-0.25601-0.79311-0.76319-0.79414-1.3167-0.0010339-0.55348 0.30297-1.0618 0.78921-1.3197 0.48624-0.25786 1.0744-0.22264 1.5269 0.09144l4.9721 2.9765c0.56261 0.34348 0.83199 1.0202 0.66077 1.66-0.17122 0.6398-0.74179 1.0885-1.3996 1.1007l-0.044328-0.007441z" fill="#0b7" fill-rule="nonzero"/>
<path d="m118.6 124h-101.19c-0.77519 0-1.4036-0.67157-1.4036-1.5s0.62841-1.5 1.4036-1.5h101.19c0.77519 0 1.4036 0.67157 1.4036 1.5s-0.62842 1.5-1.4036 1.5z" fill="#0b7" fill-rule="nonzero"/>
<path d="m32.624 124h-5.2485c-0.7598 0-1.3758-0.63704-1.3758-1.4229v-21.144c-0.0019563-0.2862 0.079551-0.56638 0.23391-0.80392l2.6277-4.0054c0.25604-0.39028 0.68242-0.62398 1.1384-0.62398 0.45601 0 0.88239 0.2337 1.1384 0.62398l2.6208 4.0054c0.1568 0.23674 0.24076 0.51697 0.24076 0.80392v21.144c0 0.78583-0.61594 1.4229-1.3757 1.4229zm-3.8727-2.8457h2.497v-19.287l-1.2519-1.9066-1.2451 1.9066v19.287z" fill="#0b7" fill-rule="nonzero"/>
<path d="m43.624 124h-5.2485c-0.7598 0-1.3757-0.63704-1.3757-1.4229v-21.144c0-0.28695 0.083961-0.56719 0.24076-0.80392l2.6208-4.0054c0.25604-0.39028 0.68242-0.62398 1.1384-0.62398 0.45601 0 0.88239 0.2337 1.1384 0.62398l2.6277 4.0054c0.15436 0.23755 0.23587 0.51772 0.23391 0.80392v21.144c0 0.37737-0.14498 0.73928-0.40298 1.0061s-0.60793 0.41675-0.9728 0.41675zm-3.8727-2.8457h2.497v-19.287l-1.2451-1.9066-1.2519 1.9066v19.287z" fill="#0b7" fill-rule="nonzero"/>
<path d="m54.624 124h-5.2485c-0.7598 0-1.3757-0.63699-1.3757-1.4228v-21.142c0-0.28693 0.083961-0.56714 0.24076-0.80386l2.6208-4.0051c0.25626-0.39208 0.68426-0.62673 1.1419-0.62602 0.45517 0.0016476 0.88009 0.23602 1.135 0.62602l2.6277 4.0051c0.15436 0.23753 0.23587 0.51768 0.23391 0.80386v21.142c0 0.37734-0.14498 0.73923-0.40298 1.006s-0.60793 0.41672-0.9728 0.41672zm-3.8727-2.8455h2.497v-19.286l-1.2451-1.9065-1.2519 1.9065v19.286z" fill="#0b7" fill-rule="nonzero"/>
<path d="m65.624 124h-5.2485c-0.7598 0-1.3758-0.63699-1.3758-1.4228v-21.142c-0.0019563-0.28618 0.079551-0.56633 0.23391-0.80386l2.6277-4.0051c0.2549-0.39 0.67982-0.62437 1.135-0.62602 0.45761-7.114e-4 0.88561 0.23393 1.1419 0.62602l2.6208 4.0051c0.1568 0.23672 0.24076 0.51693 0.24076 0.80386v21.142c0 0.78577-0.61594 1.4228-1.3757 1.4228zm-3.8727-2.8455h2.497v-19.286l-1.2519-1.9065-1.2451 1.9065v19.286z" fill="#0b7" fill-rule="nonzero"/>
<path d="m27.59 118h-3.1798c-0.77878 0-1.4101-0.67157-1.4101-1.5s0.63133-1.5 1.4101-1.5h3.1798c0.77878 0 1.4101 0.67157 1.4101 1.5s-0.63133 1.5-1.4101 1.5z" fill="#0b7" fill-rule="nonzero"/>
<path d="m27.59 111h-3.1798c-0.77878 0-1.4101-0.67157-1.4101-1.5s0.63133-1.5 1.4101-1.5h3.1798c0.77878 0 1.4101 0.67157 1.4101 1.5s-0.63133 1.5-1.4101 1.5z" fill="#0b7" fill-rule="nonzero"/>
<path d="m37.59 118h-3.1798c-0.77878 0-1.4101-0.67157-1.4101-1.5s0.63133-1.5 1.4101-1.5h3.1798c0.77878 0 1.4101 0.67157 1.4101 1.5s-0.63133 1.5-1.4101 1.5z" fill="#0b7" fill-rule="nonzero"/>
<path d="m37.59 111h-3.1798c-0.77878 0-1.4101-0.67157-1.4101-1.5s0.63133-1.5 1.4101-1.5h3.1798c0.77878 0 1.4101 0.67157 1.4101 1.5s-0.63133 1.5-1.4101 1.5z" fill="#0b7" fill-rule="nonzero"/>
<path d="m47.59 118h-3.1798c-0.77878 0-1.4101-0.67157-1.4101-1.5s0.63133-1.5 1.4101-1.5h3.1798c0.77878 0 1.4101 0.67157 1.4101 1.5s-0.63133 1.5-1.4101 1.5z" fill="#0b7" fill-rule="nonzero"/>
<path d="m47.59 111h-3.1798c-0.77878 0-1.4101-0.67157-1.4101-1.5s0.63133-1.5 1.4101-1.5h3.1798c0.77878 0 1.4101 0.67157 1.4101 1.5s-0.63133 1.5-1.4101 1.5z" fill="#0b7" fill-rule="nonzero"/>
<path d="m58.59 118h-3.1798c-0.77878 0-1.4101-0.67157-1.4101-1.5s0.63133-1.5 1.4101-1.5h3.1798c0.77878 0 1.4101 0.67157 1.4101 1.5s-0.63133 1.5-1.4101 1.5z" fill="#0b7" fill-rule="nonzero"/>
<path d="m58.59 111h-3.1798c-0.77878 0-1.4101-0.67157-1.4101-1.5s0.63133-1.5 1.4101-1.5h3.1798c0.77878 0 1.4101 0.67157 1.4101 1.5s-0.63133 1.5-1.4101 1.5z" fill="#0b7" fill-rule="nonzero"/>
<path d="m69.59 118h-3.1798c-0.77878 0-1.4101-0.67157-1.4101-1.5s0.63133-1.5 1.4101-1.5h3.1798c0.77878 0 1.4101 0.67157 1.4101 1.5s-0.63133 1.5-1.4101 1.5z" fill="#0b7" fill-rule="nonzero"/>
<path d="m69.59 111h-3.1798c-0.77878 0-1.4101-0.67157-1.4101-1.5s0.63133-1.5 1.4101-1.5h3.1798c0.77878 0 1.4101 0.67157 1.4101 1.5s-0.63133 1.5-1.4101 1.5z" fill="#0b7" fill-rule="nonzero"/>
<rect width="141" height="141"/>
</g>
</g>
</g>
</svg>
